<svg width="36" height="36" fill="none" xmlns="http://www.w3.org/2000/svg"><path fill-rule="evenodd" clip-rule="evenodd" d="M19.644 27.383L18 28.82l-1.644-1.436C10.483 22.255 7.5 17.717 7.5 13.5 7.5 7.532 12.155 3 18 3s10.5 4.532 10.5 10.5c0 4.217-2.983 8.755-8.856 13.883zM8.528 22.205c.616.843 1.302 1.701 2.058 2.574C7.793 25.408 6 26.3 6 27c0 1.21 5.369 3 12 3s12-1.79 12-3c0-.7-1.793-1.592-4.586-2.221a39.745 39.745 0 002.058-2.574C30.845 23.23 33 24.871 33 27c0 3.76-6.72 6-15 6-8.28 0-15-2.24-15-6 0-2.13 2.155-3.771 5.528-4.795zM18 6c4.206 0 7.5 3.207 7.5 7.5 0 3.07-2.441 6.849-7.5 11.334-5.059-4.485-7.5-8.264-7.5-11.334C10.5 9.207 13.794 6 18 6zm0 3a4.5 4.5 0 110 9 4.5 4.5 0 010-9zm-1.5 4.5a1.5 1.5 0 113 0 1.5 1.5 0 01-3 0z" fill="#4A5568"/></svg>
