<svg width="36" height="36" viewBox="0 0 36 36" fill="none" xmlns="http://www.w3.org/2000/svg">
<path fill-rule="evenodd" clip-rule="evenodd" d="M6 3H30C31.6569 3 33 4.34315 33 6V30C33 31.6569 31.6569 33 30 33H6C4.34315 33 3 31.6569 3 30V6C3 4.34315 4.34315 3 6 3ZM6 6V23.3787L12 17.3787L17.25 22.6287L27 12.8787L30 15.8787V6H6ZM6 30V27.6213L12 21.6213L20.3787 30H6ZM30 30H24.6213L19.3713 24.75L27 17.1213L30 20.1213V30ZM21 12C21 9.51472 18.9853 7.5 16.5 7.5C14.0147 7.5 12 9.51472 12 12C12 14.4853 14.0147 16.5 16.5 16.5C18.9853 16.5 21 14.4853 21 12ZM15 12C15 11.1716 15.6716 10.5 16.5 10.5C17.3284 10.5 18 11.1716 18 12C18 12.8284 17.3284 13.5 16.5 13.5C15.6716 13.5 15 12.8284 15 12Z" fill="#4A5568"/>
</svg>
